<svg width="119" height="83" viewBox="0 0 119 83" fill="none" xmlns="http://www.w3.org/2000/svg">
<g id="logo" clip-path="url(#clip0_19_1124)">
<g id="Group">
<path id="Vector" d="M82.1485 78.4859C102.503 78.4859 119.003 61.9268 119.003 41.5C119.003 21.0733 102.503 4.51413 82.1485 4.51413C61.7946 4.51413 45.2944 21.0733 45.2944 41.5C45.2944 61.9268 61.7946 78.4859 82.1485 78.4859Z" fill="black"/>
<g id="Group_2">
<path id="Vector_2" d="M82.1485 69.1704C97.376 69.1704 109.72 56.782 109.72 41.5C109.72 26.2181 97.376 13.8296 82.1485 13.8296C66.921 13.8296 54.5767 26.2181 54.5767 41.5C54.5767 56.782 66.921 69.1704 82.1485 69.1704Z" stroke="url(#paint0_linear_19_1124)" stroke-width="2.81" stroke-miterlimit="10"/>
<path id="Vector_3" d="M82.1486 58.4836C91.495 58.4836 99.0717 50.8798 99.0717 41.5C99.0717 32.1203 91.495 24.5165 82.1486 24.5165C72.8023 24.5165 65.2256 32.1203 65.2256 41.5C65.2256 50.8798 72.8023 58.4836 82.1486 58.4836Z" stroke="url(#paint1_linear_19_1124)" stroke-width="2.81" stroke-miterlimit="10"/>
<path id="Vector_4" d="M82.1483 47.7967C85.6134 47.7967 88.4225 44.9776 88.4225 41.5C88.4225 38.0225 85.6134 35.2033 82.1483 35.2033C78.6831 35.2033 75.874 38.0225 75.874 41.5C75.874 44.9776 78.6831 47.7967 82.1483 47.7967Z" stroke="url(#paint2_linear_19_1124)" stroke-width="2.81" stroke-miterlimit="10"/>
</g>
</g>
<path id="Vector_5" d="M62.3354 0.988434H20.3688C9.66333 0.988434 0.984863 9.69793 0.984863 20.4416V62.5584C0.984863 73.3021 9.66333 82.0116 20.3688 82.0116H62.3354C73.0409 82.0116 81.7193 73.3021 81.7193 62.5584V20.4416C81.7193 9.69793 73.0409 0.988434 62.3354 0.988434Z" fill="white" stroke="black" stroke-width="7.03" stroke-miterlimit="10"/>
<g id="Group_3">
<path id="Vector_6" d="M27.701 33.4546C27.7992 33.2715 27.8469 33.1026 27.8469 32.9477C27.8469 32.6098 27.6505 32.4408 27.2577 32.4408C26.9771 32.4408 26.6825 32.5394 26.3738 32.7365C26.0651 32.9336 25.835 33.173 25.6807 33.4546L21.0115 41.562C20.8432 41.8436 20.6046 42.0829 20.296 42.2801C19.9873 42.4772 19.6927 42.5757 19.4121 42.5757H14.3613C13.9684 42.5757 13.772 42.4068 13.772 42.0689C13.772 41.914 13.8281 41.745 13.9376 41.562L18.5871 33.4546C18.7022 33.2715 18.7583 33.1026 18.7583 32.9477C18.7583 32.6098 18.5619 32.4408 18.169 32.4408C17.8884 32.4408 17.5938 32.5394 17.2851 32.7365C16.9765 32.9336 16.738 33.173 16.5696 33.4546L11.92 41.562C11.7517 41.8436 11.5132 42.0829 11.2045 42.2801C10.8959 42.4772 10.6012 42.5757 10.3206 42.5757H5.27261C4.87977 42.5757 4.68335 42.4068 4.68335 42.0689C4.68335 41.914 4.73947 41.745 4.85171 41.562L10.0905 32.4408C10.2589 32.1592 10.4974 31.9198 10.8061 31.7227C11.1147 31.5256 11.4094 31.427 11.69 31.427H34.9153C35.3081 31.427 35.5045 31.596 35.5045 31.9339C35.5045 32.0888 35.4484 32.2578 35.3362 32.4408L25.5741 49.4159C25.3636 49.782 25.1448 49.965 24.9231 49.965C24.7968 49.965 24.693 49.8946 24.6088 49.7538L21.8112 45.0032C21.727 44.8483 21.685 44.6512 21.685 44.4118C21.685 44.0598 21.7691 43.7444 21.9375 43.4628L27.701 33.4546Z" fill="black"/>
<path id="Vector_7" d="M38.0131 42.8714C37.7044 43.0686 37.4715 43.3051 37.3172 43.5867L36.1387 45.6058C36.0545 45.7917 36.0124 45.9606 36.0124 46.1183C36.0124 46.4591 36.2004 46.6308 36.5792 46.6308C36.8598 46.6308 37.1573 46.5323 37.4744 46.3352C37.7886 46.138 38.0243 45.8987 38.1787 45.6171L38.7679 44.6033C38.9223 44.3217 39.158 44.0823 39.4722 43.8852C39.7865 43.6881 40.0867 43.5895 40.3673 43.5895H45.4154C45.7942 43.5895 45.9822 43.7585 45.9822 44.0964C45.9822 44.2513 45.9317 44.4202 45.8363 44.6033L44.6577 46.6308C44.5034 46.9124 44.2677 47.1518 43.9534 47.3489C43.6392 47.5461 43.3473 47.6446 43.0808 47.6446H29.741C29.3482 47.6446 28.8627 47.884 28.9834 47.5686C29.0423 47.4137 29.2359 46.9913 29.3341 46.8083L33.7648 37.5097C33.9191 37.2281 34.1548 36.9887 34.4691 36.7916C34.7834 36.5945 35.0836 36.4959 35.3642 36.4959H49.5009C49.8797 36.4959 50.0677 36.6649 50.0677 37.0028C50.0677 37.1577 50.0172 37.3266 49.919 37.5097L47.5816 41.5648C47.4273 41.8464 47.1916 42.0857 46.8745 42.2829C46.5574 42.48 46.26 42.5786 45.9794 42.5786H38.8998C38.6192 42.5786 38.3246 42.6771 38.0159 42.8742L38.0131 42.8714ZM39.0597 40.5369C38.9615 40.7228 38.9138 40.8946 38.9138 41.0494C38.9138 41.393 39.1103 41.562 39.5031 41.562C39.7837 41.562 40.0783 41.4634 40.387 41.2663C40.6956 41.0692 40.9342 40.8298 41.1025 40.5482L42.2586 38.5206C42.3568 38.3376 42.4045 38.1686 42.4045 38.0138C42.4045 37.6758 42.2137 37.5069 41.8349 37.5069C41.5543 37.5069 41.2568 37.6054 40.9482 37.8026C40.6395 37.9997 40.401 38.2362 40.2299 38.5178L39.0569 40.5341L39.0597 40.5369Z" fill="black"/>
<path id="Vector_8" d="M60.8203 29.943C60.9045 30.1063 60.9465 30.3231 60.9465 30.5991C60.9465 31.0046 60.8624 31.3763 60.694 31.7171L54.3412 44.3977C54.1869 44.7216 53.9512 44.9975 53.6369 45.2228C53.3226 45.4509 53.0308 45.5636 52.7642 45.5636H47.7162C47.3234 45.5636 47.127 45.3692 47.127 44.9806C47.127 44.8032 47.1747 44.6089 47.2729 44.3977L53.6902 31.5735L57.0574 24.8685C57.2679 24.4489 57.4839 24.2377 57.7084 24.2377C57.8347 24.2377 57.9385 24.3109 58.0227 24.4573L60.8203 29.9458V29.943Z" fill="black"/>
<path id="Vector_9" d="M77.4544 33.9615C77.8332 33.9615 78.0212 34.1304 78.0212 34.4683C78.0212 34.6232 77.9707 34.7922 77.8753 34.9752L72.6169 44.0964C72.4625 44.378 72.2268 44.6174 71.9126 44.8145C71.5983 45.0116 71.3065 45.1102 71.0399 45.1102H56.9032C56.5104 45.1102 56.314 44.9412 56.314 44.6033C56.314 44.4484 56.3617 44.2794 56.4599 44.0964L61.7183 34.9752C61.8727 34.6936 62.1084 34.4543 62.4226 34.2571C62.7369 34.06 63.0372 33.9615 63.3178 33.9615H77.4544ZM70.2177 35.989C70.3159 35.806 70.3636 35.637 70.3636 35.4821C70.3636 35.1442 70.1756 34.9752 69.7968 34.9752C69.5162 34.9752 69.2216 35.0738 68.9157 35.2709C68.6071 35.468 68.3686 35.7074 68.203 35.989L64.1231 43.0826C64.0221 43.2657 63.9716 43.4346 63.9716 43.5895C63.9716 43.9274 64.1596 44.0964 64.5384 44.0964C64.819 44.0964 65.1164 43.9978 65.4335 43.8007C65.7478 43.6036 65.9835 43.3642 66.1378 43.0826L70.2177 35.989Z" fill="black"/>
<path id="Vector_10" d="M36.8094 41.8576C37.2022 41.8576 37.6765 41.3676 37.6765 41.8576C37.6765 42.0829 37.3425 43.0629 37.2303 43.3304L31.9915 56.5968C31.8372 57.0079 31.6014 57.3543 31.2872 57.6416C30.9729 57.9288 30.6727 58.0724 30.3921 58.0724H23.3237C22.6503 58.0724 22.1873 57.7542 21.9347 57.1206L19.1372 50.1819C19.067 49.996 19.0333 49.7426 19.0333 49.4131C19.0249 49.0301 19.0642 48.6527 19.1568 48.2867C19.2354 47.9713 19.3785 47.6728 19.5496 47.394L21.671 43.9415C21.7496 43.8148 21.8141 43.6796 21.8814 43.5444C22.0498 43.2037 22.2715 42.8658 22.4511 42.5729C22.6699 42.2125 23.4107 41.8548 23.6913 41.8548H27.7235C28.1164 41.8548 28.3128 42.0998 28.3128 42.5926C28.3128 42.8179 29.0227 43.353 28.9105 43.6177L22.423 55.0508C22.3108 55.3183 21.9656 55.9773 22.2659 56.4278C22.6727 57.0417 23.4219 57.2614 24.1038 56.9601C24.6229 56.732 24.7127 56.5883 24.9063 56.2307C25.0999 55.8731 25.2992 55.5549 25.5152 55.1184L30.7372 43.7556C31.116 43.2093 31.5032 42.2406 31.6772 41.8576C31.8961 41.3705 32.5302 41.9421 32.8108 41.9421L36.8178 41.8548L36.8094 41.8576Z" fill="black"/>
<path id="Vector_11" d="M47.2141 50.2269C47.4807 50.2269 47.6126 50.3452 47.6126 50.5846C47.6126 50.6944 47.5789 50.8127 47.5088 50.9422L43.8076 57.36C43.6982 57.5571 43.5326 57.726 43.311 57.864C43.0893 58.002 42.8845 58.0724 42.6964 58.0724H32.7463C32.4685 58.0724 32.3311 57.9541 32.3311 57.7148C32.3311 57.605 32.3647 57.4867 32.4349 57.3571L36.136 50.9394C36.2454 50.7423 36.411 50.5733 36.6327 50.4353C36.8543 50.2973 37.0648 50.2269 37.2612 50.2269H47.2113H47.2141ZM42.1212 51.6547C42.1914 51.5251 42.225 51.4069 42.225 51.297C42.225 51.0605 42.0932 50.9394 41.8266 50.9394C41.6302 50.9394 41.4225 51.0098 41.2065 51.1478C40.9904 51.2858 40.822 51.4547 40.7042 51.6547L37.8308 56.6475C37.7607 56.777 37.7242 56.8953 37.7242 57.0023C37.7242 57.2389 37.8561 57.3571 38.1227 57.3571C38.3191 57.3571 38.5295 57.2867 38.7512 57.1488C38.9729 57.0108 39.1384 56.8418 39.2479 56.6447L42.1212 51.6518V51.6547Z" fill="black"/>
<path id="Vector_12" d="M54.5628 51.6068C54.8153 51.6068 55.0819 51.5589 55.3625 51.4603C55.7273 51.3336 55.9097 51.1647 55.9097 50.9535C55.9097 50.7141 55.6571 50.593 55.152 50.593H50.104C49.7252 50.593 49.5372 50.424 49.5372 50.0861C49.5372 49.9312 49.5849 49.7623 49.6831 49.5792L50.8392 47.5517C51.0076 47.2701 51.2461 47.0307 51.5547 46.8336C51.8634 46.6365 52.158 46.5379 52.4386 46.5379H57.4866C57.8795 46.5379 58.0759 46.7069 58.0759 47.0448C58.0759 47.1997 58.0198 47.3686 57.9075 47.5517L57.3407 48.5655C57.2285 48.7485 57.1724 48.9175 57.1724 49.0723C57.1724 49.4103 57.3688 49.5792 57.7616 49.5792C58.0394 49.5792 58.3312 49.4807 58.6371 49.2807C58.9429 49.0836 59.1815 48.8414 59.347 48.557L59.9138 47.5432C60.0822 47.2644 60.3207 47.0251 60.6294 46.8308C60.938 46.6365 61.2327 46.5379 61.5133 46.5379H66.5697C66.9625 46.5379 67.1589 46.7069 67.1589 47.0448C67.1589 47.1997 67.1028 47.3686 66.9906 47.5517L65.8345 49.5792C65.6661 49.8608 65.4276 50.1002 65.119 50.2973C64.8103 50.4944 64.5157 50.593 64.2351 50.593H59.1871C58.9486 50.593 58.6904 50.6437 58.4098 50.7394C58.031 50.8662 57.843 51.0351 57.843 51.2463C57.843 51.4857 58.0955 51.604 58.6006 51.604H63.6486C64.0415 51.604 64.2379 51.7729 64.2379 52.1109C64.2379 52.2657 64.1874 52.4347 64.092 52.6177L61.7574 56.6728C61.589 56.9544 61.3505 57.1938 61.0418 57.3909C60.7332 57.5881 60.4386 57.6866 60.158 57.6866H55.1099C54.7311 57.6866 54.5431 57.5177 54.5431 57.1797C54.5431 57.0248 54.5908 56.8559 54.689 56.6728L56.4344 53.6315C56.5326 53.4485 56.5831 53.2795 56.5831 53.1246C56.5831 52.7867 56.3923 52.6177 56.0107 52.6177C55.7273 52.6177 55.4326 52.7163 55.1212 52.9106C54.8097 53.1049 54.5768 53.3443 54.4225 53.6231L52.6519 56.6616C52.4975 56.946 52.2647 57.1882 51.9476 57.3853C51.6333 57.5852 51.3415 57.6838 51.0777 57.6838H46.0381C45.6453 57.6838 45.4517 57.5148 45.4517 57.1769C45.4517 57.022 45.4994 56.8531 45.5976 56.67L47.9322 52.6149C48.1005 52.3333 48.339 52.094 48.6477 51.8968C48.9564 51.6997 49.251 51.6011 49.5316 51.6011H54.56L54.5628 51.6068Z" fill="black"/>
</g>
</g>
<defs>
<linearGradient id="paint0_linear_19_1124" x1="54.181" y1="41.5" x2="110.116" y2="41.5" gradientUnits="userSpaceOnUse">
<stop offset="0.7" stop-color="#231F20"/>
<stop offset="1" stop-color="white"/>
</linearGradient>
<linearGradient id="paint1_linear_19_1124" x1="64.8299" y1="41.5" x2="99.4673" y2="41.5" gradientUnits="userSpaceOnUse">
<stop offset="0.7" stop-color="#231F20"/>
<stop offset="1" stop-color="white"/>
</linearGradient>
<linearGradient id="paint2_linear_19_1124" x1="75.4784" y1="41.5" x2="88.8181" y2="41.5" gradientUnits="userSpaceOnUse">
<stop offset="0.7" stop-color="#231F20"/>
<stop offset="1" stop-color="white"/>
</linearGradient>
<clipPath id="clip0_19_1124">
<rect width="119" height="83" fill="white"/>
</clipPath>
</defs>
</svg>
